<?xml version="1.0" standalone="no"?>
<!DOCTYPE svg PUBLIC "-//W3C//DTD SVG 20010904//EN"
 "http://www.w3.org/TR/2001/REC-SVG-20010904/DTD/svg10.dtd">
<svg version="1.0" xmlns="http://www.w3.org/2000/svg"
 width="32.000000pt" height="32.000000pt" viewBox="0 0 32.000000 32.000000"
 preserveAspectRatio="xMidYMid meet">

<g transform="translate(0.000000,32.000000) scale(0.100000,-0.100000)"
fill="#000000" stroke="none">
<path d="M128 313 l-108 -4 0 -79 c0 -43 5 -91 10 -106 8 -19 8 -30 0 -38 -15
-15 -12 -46 6 -53 8 -3 20 -1 26 5 7 7 21 3 45 -14 41 -28 54 -29 91 -10 65
34 93 86 102 190 10 104 6 117 -34 114 -17 -1 -79 -4 -138 -5z m162 -31 c0
-21 -16 -43 -65 -92 -50 -50 -65 -60 -65 -44 0 11 25 44 55 74 30 30 55 58 55
63 0 5 -26 -16 -57 -47 -32 -31 -67 -56 -78 -56 -15 0 -4 16 45 65 72 73 110
86 110 37z m-85 8 c-3 -5 -29 -10 -57 -10 -37 0 -54 -5 -64 -17 -12 -16 -12
-16 -7 5 4 16 1 22 -10 22 -19 0 -31 -16 -22 -30 11 -18 13 -152 2 -141 -6 6
-13 49 -15 96 l-5 85 92 0 c59 0 90 -4 86 -10z m-64 -64 c-42 -43 -71 -51 -71
-19 0 8 8 25 18 38 13 19 27 24 57 25 l39 0 -43 -44z m139 -87 c-16 -57 -77
-119 -118 -119 -32 0 -82 33 -70 46 5 4 16 0 26 -9 29 -26 65 -21 99 16 35 36
53 75 53 116 0 15 3 31 8 35 12 13 14 -40 2 -85z m-45 -25 c-9 -17 -30 -38
-46 -48 -28 -16 -32 -16 -54 -2 -14 9 -25 19 -25 22 0 4 6 1 14 -5 18 -15 61
3 50 20 -3 6 11 29 32 51 37 37 39 38 43 16 1 -12 -4 -37 -14 -54z m-85 30 c0
-14 -3 -14 -15 -4 -8 7 -15 14 -15 16 0 2 7 4 15 4 8 0 15 -7 15 -16z"/>
</g>
</svg>
